<?xml version="1.0" encoding="UTF-8"?>
<svg enable-background="new 0 0 448 352" version="1.1" viewBox="0 0 448 352" xml:space="preserve" xmlns="http://www.w3.org/2000/svg">
    <path d="m27.461 353c0.56848-18.118 0.62561-36.237-0.41926-54.357-0.086161-1.4942-0.16819-2.9974-0.10209-4.4898 0.13362-3.0166 0.067688-6.0901 4.2034-6.8043 3.7371-0.64539 6.7694-0.50024 8.8561 3.428 6.4221 12.09 14.951 22.794 22.768 33.964 0.26646 0.3808 0.72008 0.63064 1.7691 1.5207 0-6.5203 0.3914-12.442-0.10998-18.288-0.50235-5.8567-0.12997-11.612 0.19713-17.427 0.2252-4.0031 2.1234-5.1777 5.7926-4.8209 3.5426 0.34451 7.1852 0.068573 6.8806 5.4696-1.1442 20.284 0.099846 40.582-0.22904 61.339-4.0917 0.46487-8.1163 0.46487-12.67 0.099518-5.676-14.748-15.313-26.279-24.026-38.398-0.45708 0.092681-0.91417 0.18533-1.3713 0.27802v38.486h-11.539z"/>
    <path d="m241.47 353c-4.6153-1.5733-6.0976-4.0024-3.8715-8.3887 2.5361-4.997 3.6725-5.6797 9.3908-3.6779 4.8916 1.7124 9.7717 3.2808 15.078 2.7415 3.5911-0.3649 6.652-1.6765 7.5879-5.3672 0.88284-3.4815-1.5032-5.8148-4.272-7.1304-5.0894-2.4181-10.469-4.2207-15.586-6.5861-8.4815-3.9204-13.874-10.173-14.109-19.994-0.21959-9.1779 5.3048-16.072 14.876-18.643 9.3239-2.5045 18.504-0.76526 27.679 0.89429 2.3791 0.43027 3.4654 1.9862 2.6281 4.3911-1.0702 3.0738-0.5719 7.5156-5.8438 7.1727-4.9709-0.32333-9.8737-1.4713-14.907-1.1146-1.8352 0.13007-3.6286 0.18503-5.3577 0.94867-4.8338 2.1349-5.9288 6.4199-2.5382 10.431 2.5222 2.9841 5.7109 5.0647 9.3408 6.4853 3.0985 1.2125 6.2065 2.4022 9.2856 3.6625 16.17 6.619 18.398 23 4.3705 33.923-11.241 0.25107-22.261 0.25107-33.751 0.25107z"/>
    <path d="m294.47 353c-2.1031-1.8751-4.0113-3.5771-5.3248-5.655-5.8762-9.2956-1.3771-20.139 9.9779-24.222 5.2548-1.8895 10.754-1.8099 16.235-1.69 1.4502 0.031708 3.1526 0.76321 4.0109-0.97424 0.8324-1.685 0.1156-3.3002-1.0682-4.5777-4.956-5.3481-11.133-5.185-17.555-3.7559-5.3318 1.1864-8.0295-0.22531-8.9364-4.6688-0.33423-1.6375-0.22073-3.0583 1.6747-3.5715 10.412-2.8194 20.83-4.8643 31.031 0.72247 4.7268 2.5888 7.5105 6.654 7.7164 12.038 0.45145 11.805 0.65286 23.62 0.86337 35.893-12.781 0.4614-25.468 0.4614-38.624 0.4614m24.655-17.816c-0.86533-3.7201-3.6895-4.3893-6.8669-4.2129-4.0345 0.224-8.5262-0.68335-11.328 3.411-1.1711 1.7116-1.3574 3.933-0.22803 5.6807 2.5421 3.9341 6.6779 4.3102 10.615 3.3091 3.7805-0.96124 8.6125-1.5335 7.8072-8.1878z"/>
    <path d="m199.47 353c-6.3074-3.5223-12.166-6.8998-14.925-13.791-5.7205-14.289-2.2245-30.527 12.7-36.592 14.462-5.8771 31.717 2.2372 36.35 16.994 3.348 10.666-2.6055 24.655-12.915 30.37-1.4432 0.79996-2.8624 1.6434-4.4852 2.743-5.5475 0.27634-10.902 0.27634-16.725 0.27634m2.1618-39.972c-10.206 4.9178-9.6568 20.693 0.14627 26.412 2.7753 1.6192 5.646 2.0265 8.6285 1.0788 7.1425-2.2696 11.672-12.541 9.1167-20.461-2.0906-6.4793-9.678-9.7211-17.892-7.0304z"/>
    <path d="m346.47 353c-3.0481-3.0004-6.312-5.4485-7.6522-9.4293-3.02-8.9705 1.935-17.451 12.134-20.665 5.0045-1.5772 10.161-1.3788 15.305-1.3852 1.4244-0.001801 3.1588 0.7775 4.0518-0.93814 0.87195-1.6752 0.10495-3.2932-0.95319-4.6269-4.1179-5.1905-9.6617-5.3358-15.414-3.9483-4.4373 1.0704-8.1479 1.1214-10.32-3.8481-1.0776-2.4651-1.0308-4.1592 1.8504-4.9391 6.937-1.8776 13.963-3.3345 21.16-2.0493 11.201 2.0002 16.323 8.2777 16.569 20.721 0.20053 10.136 0.10629 20.27 1.6766 30.722-12.564 0.38666-25.252 0.38666-38.408 0.38666m4.7618-13.485c3.6108 6.8375 14.168 4.3855 18.079-0.18011 1.5705-1.8334 1.9958-3.947 0.40253-5.8884-3.5796-4.3618-8.2346-3.2906-12.829-2.2457-4.0789 0.9277-6.5275 3.1103-5.6528 8.3142z"/>
    <path d="m89.469 353c-2.3812-2.2906-4.7664-4.152-6.2107-6.8754-3.804-7.1726-2.2251-14.642 4.3534-19.439 5.8493-4.2659 12.534-4.9395 19.501-4.3149 1.7387 0.15588 3.9065 1.2258 5.0663-0.69519 1.1783-1.9517-0.21911-3.8744-1.2938-5.5258-4.0759-6.2632-10.275-5.1977-16.213-4.3312-6.7088 0.97891-8.5491-0.1091-10.162-7.3901 10.683-3.157 21.222-6.6951 31.904 0.26514 4.7831 3.1169 7.2329 7.3987 8.0204 13.108 1.5794 11.449 0.079025 22.978 1.4348 34.808-11.89 0.39157-23.911 0.39157-36.4 0.39157m20.486-20.442c-4.2445-2.3149-8.4792-0.90091-12.469 0.49979-2.3747 0.83359-4.879 2.5707-3.6129 6.0198 1.7264 4.7032 6.7956 6.0237 13.215 3.4766 5.3839-2.1364 5.9723-3.7505 2.8677-9.9962z"/>
    <path d="m132.46 353c-0.93524-15.47-0.61183-30.927 0.33072-46.371 0.23514-3.8528 3.3453-5.5617 8.1593-3.534 2.9025 1.2226 4.9151 0.55878 7.4327-0.33173 12.452-4.4043 21.253-1.6035 26.598 8.2618 1.6313 3.0108 2.2104 6.2769 2.2325 9.6143 0.069473 10.482 0.020996 20.965-0.097946 31.904-3.8091 0.45682-7.502 0.45682-11.765-0.001312-0.57141-10.423-0.41095-20.392-0.62384-30.352-0.17737-8.2984-6.9798-12.03-14.25-8.0732-4.1817 2.2758-6.0992 5.7702-6.1378 10.572-0.07576 9.4369 1.6017 18.898-0.33917 28.311h-11.539z"/>
    <path d="m392.47 353c-3.9675-3.1012-3.5985-9.4832 0.11328-12.27 1.7389-1.3057 3.1729-0.40729 4.6367 0.25159 4.1496 1.8676 8.3706 3.1392 13.022 2.7324 2.8434-0.24866 4.7556-1.4704 5.4182-4.2462 0.68027-2.8503-1.1324-4.4348-3.3944-5.3743-4.1393-1.7193-8.446-3.0436-12.553-4.8308-6.2993-2.7411-10.049-8.9222-9.4318-15.025 0.62015-6.1304 5.4684-11.513 12.209-12.858 7.1096-1.4193 14.236-1.1921 21.156 1.2993 1.9576 0.7049 4.9976 1.2097 3.4097 4.1262-1.4465 2.6568-1.8788 7.6324-7.0449 5.7527-4.2938-1.5624-8.4548-2.9589-13.07-1.3696-2.0902 0.71985-3.5982 1.7943-3.7501 4.0952-0.14267 2.1617 1.3124 3.4053 3.0617 4.1165 3.6906 1.5005 7.4474 2.8409 11.193 4.2019 14.491 5.2649 16.883 16.669 5.7961 27.666-0.35046 0.34763-0.6452 0.75144-1.1031 1.4307-9.8248 0.30158-19.512 0.30158-29.669 0.30158z"/>
    <path d="m191.9 69.407c-8.5426-2.0669-15.928-6.1649-23.856-8.5782-8.8677-2.6995-19.943-4.0906-26.171 5.0932-1.668 2.4597-3.9151 4.5287-5.9135 6.7616-1.2113 1.3534-2.338 3.0839-4.5526 2.1208-2.2902-0.99599-3.7551-2.6354-3.7679-5.3538-0.016052-3.4149 1.7123-6.0011 3.7131-8.5099 1.2254-1.5365 3.0541-2.615 3.6678-4.6898-0.19923-1.598-4.0024 0.11374-2.6977-3.1582 0.63083-1.582-1.5737-2.7084-2.7668-3.8197-1.7024-1.5856-3.6423-2.9561-5.1456-4.7063-2.4043-2.7992-1.54-5.6389 0.72918-8.059 2.3257-2.4803 4.6376-1.101 6.5865 0.60152 2.2531 1.9683 4.4938 4.027 6.3482 6.358 3.0758 3.8662 6.9001 5.5464 11.77 5.2124 1.9899-0.1365 4.0136-0.17439 5.9938 0.023922 4.5282 0.45349 7.4148-0.19869 6.2845-6.023-0.57292-2.9523 0.6716-5.9094 3.899-7.4194 7.8364-3.6666 15.542-7.6334 23.487-11.044 12.207-5.2394 24.64-4.825 37-0.38391 4.0764 1.4647 8.1062 3.13 10.846 6.8058 2.6411 3.544 6.8723 2.3917 10.198 2.7235 15.578 1.5543 30.761 16.13 31.763 36.365 0.49228 9.9376-1.2972 19.235-8.1143 26.994 1.2945 1.5766 2.9041 0.92967 4.2749 0.93242 19.496 0.039101 38.991 0.029762 58.487-0.008232 7.5695-0.014755 10.269 2.5484 10.379 10.038 0.089966 6.1629 0.076111 5.6393 6.038 5.481 17.008-0.45144 32.583 4.6528 41.563 21.284 8.1304 15.058 5.1751 33.657-6.7534 46.282-10.146 10.739-22.336 15.902-37.257 13.852-5.4381-0.74722-10.997 0.20537-16.421-1.095-1.98-0.47469-2.8038 0.82681-3.6624 2.514-11.964 23.51-29.488 41.871-52.454 54.701-12.538 7.0045-26.231 9.9202-40.829 8.9751-11.121-0.72-22.356-0.87476-33.472-0.18481-14.498 0.8999-27.197-3.8268-39.356-10.685-24.151-13.622-40.291-34.307-51.651-59.186-9.6951-21.233-14.243-43.52-14.471-66.787-0.047158-4.8246-0.63782-9.6442-0.67941-14.469-0.062103-7.2056 3.5454-10.75 10.616-10.739 25.494 0.040451 51.006-0.45578 76.477 0.33996 16.896 0.52783 33.393-2.4507 50.084-3.571 12.446-0.83541 21.919-11.215 21.616-21.625-0.18239-6.2536-5.1319-11.792-11.212-12.933-2.2255-0.41758-3.4435 0.9348-4.8947 1.9113-13.95 9.3871-29.091 11.685-45.722 7.658m-38.921 151.11c4.8943 4.8097 10.286 8.9977 16.132 12.569 8.6266 5.2687 17.621 8.9749 28.108 9.0577 17.99 0.14203 35.969-0.18587 53.952-0.35045 5.003-0.045776 9.3699-2.1287 13.7-4.2944 19.267-9.6368 33.428-24.407 43.84-43.117 10.472-18.817 15.531-39.201 17.81-60.36 0.68414-6.3502 0.10574-12.836 0.10574-19.422-0.54324-0.099563-1.1858-0.32042-1.8283-0.3203-35.663 0.006454-71.328-0.08915-106.99 0.16255-6.6332 0.046814-11.931 3.6253-15.778 9.2359-2.385 3.4785-2.035 6.9132-0.46522 10.41 1.5725 3.5029 4.73 3.6436 8.0446 3.6298 15.332-0.063766 30.665-0.015549 45.998-0.038757 3.6982-0.0056 7.283 0.47563 10.8 1.6908 25.663 8.8676 35.008 36.509 19.769 59.182-7.0235 10.45-17.016 17.516-29.521 18.495-19.419 1.5205-38.958 1.2432-58.453 0.8116-11.67-0.25838-22.989-0.73131-33.263-8.1669-21.264-15.388-23.42-45.847-3.8308-63.236 4.7789-4.2422 10.57-6.649 17.057-8.9157-4.1563-7.7835-2.2907-15.292 0.68864-23.227h-65.939c-0.18602 40.504 9.9957 76.75 40.063 106.2m87.512-27.859c3.9972-0.001953 7.9973 0.091629 11.991-0.025207 9.0018-0.26338 15.464-6.8519 15.431-15.608-0.030274-7.9521-6.6887-14.614-15.224-14.686-21.316-0.17928-42.641 0.13972-63.948-0.34065-7.5809-0.17093-16.254 7.1263-16.327 15.03-0.081268 8.8147 7.0827 15.599 16.615 15.619 16.822 0.035416 33.643 0.010117 51.463 0.010376m132.46-29.343c3.8754-7.4738 3.3811-14.741-1.3108-21.638-4.8701-7.1583-17.472-11.356-25.508-8.8369-2.0222 0.63384-1.7611 2.1254-1.937 3.5481-0.50919 4.1197-0.96033 8.2469-1.5058 12.362-1.1259 8.494-2.8161 16.885-5.4631 26.169 5.3139 0 9.9178-0.22104 14.493 0.046479 9.2488 0.54076 16.046-3.2804 21.232-11.651m-160.9-119.23c-1.0644-5.0714-4.2468-7.832-8.2657-7.1703-4.3468 0.71574-7.8302 5.1104-7.5144 9.4799 0.26302 3.6383 5.0725 7.3781 9.2182 7.1679 4.0842-0.20708 6.5635-3.4534 6.5619-9.4775z"/>
</svg>
